HIERARCHY
ROOT Hips
{
	OFFSET 0.000000 0.000000 0.000000
	CHANNELS 6 Xposition Yposition Zposition Xrotation Yrotation Zrotation
	JOINT LeftUpLeg_virtual
	{
		OFFSET 0.000000 0.000000 0.000000
		CHANNELS 3 Xrotation Yrotation Zrotation
		JOINT LeftUpLeg
		{
			OFFSET 15.427100 -6.655098 0.678600
			CHANNELS 3 Xrotation Yrotation Zrotation
			JOINT LeftLeg
			{
				OFFSET 4.081073 -39.591068 13.024000
				CHANNELS 3 Xrotation Yrotation Zrotation
				JOINT LeftFoot
				{
					OFFSET -4.081074 -37.707932 -15.979700
					CHANNELS 3 Xrotation Yrotation Zrotation
					JOINT LeftToeBase
					{
						OFFSET 5.346399 -15.068900 20.645000
						CHANNELS 3 Xrotation Yrotation Zrotation
						JOINT LeftToe_End
						{
							OFFSET 2.754700 0.931300 11.300900
							CHANNELS 3 Xrotation Yrotation Zrotation
							End Site
							{
								OFFSET 0 0 0
							}
						}
					}
				}
			}
		}
	}
	JOINT RightUpLeg_virtual
	{
		OFFSET 0.000000 0.000000 0.000000
		CHANNELS 3 Xrotation Yrotation Zrotation
		JOINT RightUpLeg
		{
			OFFSET -15.569500 -6.655098 0.678600
			CHANNELS 3 Xrotation Yrotation Zrotation
			JOINT RightLeg
			{
				OFFSET -4.081825 -39.591045 13.023800
				CHANNELS 3 Xrotation Yrotation Zrotation
				JOINT RightFoot
				{
					OFFSET 4.081824 -37.707954 -15.979600
					CHANNELS 3 Xrotation Yrotation Zrotation
					JOINT RightToeBase
					{
						OFFSET -5.346400 -15.068900 20.645000
						CHANNELS 3 Xrotation Yrotation Zrotation
						JOINT RightToe_End
						{
							OFFSET -2.754700 0.931300 11.300900
							CHANNELS 3 Xrotation Yrotation Zrotation
							End Site
							{
								OFFSET 0 0 0
							}
						}
					}
				}
			}
		}
	}
	JOINT Spine_virtual
	{
		OFFSET 0.000000 0.000000 0.000000
		CHANNELS 3 Xrotation Yrotation Zrotation
		JOINT Spine
		{
			OFFSET -0.279200 12.230698 -2.892100
			CHANNELS 3 Xrotation Yrotation Zrotation
			JOINT Spine1
			{
				OFFSET -0.232667 10.192268 -1.242267
				CHANNELS 3 Xrotation Yrotation Zrotation
				JOINT Spine1_split
				{
					OFFSET -0.232667 10.192268 -1.242267
					CHANNELS 3 Xrotation Yrotation Zrotation
					JOINT Spine2
					{
						OFFSET -0.232667 10.192268 -1.242267
						CHANNELS 3 Xrotation Yrotation Zrotation
						JOINT Neck_virtual
						{
							OFFSET 0.000000 0.000000 0.000000
							CHANNELS 3 Xrotation Yrotation Zrotation
							JOINT Neck
							{
								OFFSET -0.418800 17.814194 8.416900
								CHANNELS 3 Xrotation Yrotation Zrotation
								JOINT Head
								{
									OFFSET 0.000000 7.031097 3.806800
									CHANNELS 3 Xrotation Yrotation Zrotation
									JOINT HeadTop_End
									{
										OFFSET 0.000000 24.646606 12.978600
										CHANNELS 3 Xrotation Yrotation Zrotation
										End Site
										{
											OFFSET 0 0 0
										}
									}
								}
							}
						}
						JOINT LeftShoulder_virtual
						{
							OFFSET 0.000000 0.000000 0.000000
							CHANNELS 3 Xrotation Yrotation Zrotation
							JOINT LeftShoulder
							{
								OFFSET 8.476499 7.247704 -3.868750
								CHANNELS 3 Xrotation Yrotation Zrotation
								JOINT LeftShoulder_split
								{
									OFFSET 8.476499 7.247704 -3.868750
									CHANNELS 3 Xrotation Yrotation Zrotation
									JOINT LeftArm
									{
										OFFSET 9.308998 -2.777710 0.208600
										CHANNELS 3 Xrotation Yrotation Zrotation
										JOINT LeftForeArm
										{
											OFFSET 29.972298 0.000000 0.000000
											CHANNELS 3 Xrotation Yrotation Zrotation
											JOINT LeftHand
											{
												OFFSET 26.026505 0.000000 0.000000
												CHANNELS 3 Xrotation Yrotation Zrotation
												End Site
												{
													OFFSET 0 0 0
												}
											}
										}
									}
								}
							}
						}
						JOINT RightShoulder_virtual
						{
							OFFSET 0.000000 0.000000 0.000000
							CHANNELS 3 Xrotation Yrotation Zrotation
							JOINT RightShoulder
							{
								OFFSET -7.570500 7.247704 -3.868750
								CHANNELS 3 Xrotation Yrotation Zrotation
								JOINT RightShoulder_split
								{
									OFFSET -7.570500 7.247704 -3.868750
									CHANNELS 3 Xrotation Yrotation Zrotation
									JOINT RightArm
									{
										OFFSET -9.308998 -2.777710 0.208500
										CHANNELS 3 Xrotation Yrotation Zrotation
										JOINT RightForeArm
										{
											OFFSET -29.972300 0.000000 0.000000
											CHANNELS 3 Xrotation Yrotation Zrotation
											JOINT RightHand
											{
												OFFSET -26.026505 0.000000 0.000000
												CHANNELS 3 Xrotation Yrotation Zrotation
												End Site
												{
													OFFSET 0 0 0
												}
											}
										}
									}
								}
							}
						}
					}
				}
			}
		}
	}
}
MOTION
Frames: 11
Frame Time: 0.03333333
-1.945811 94.259369 -2.185125 0.000000 0.000000 0.000000 -8.995056 -5.566098 9.161232 9.197524 15.165761 -13.234941 10.536953 -0.417937 -0.567184 -8.842914 -0.074362 4.244978 -0.000005 0.000002 0.000000 0.000000 0.000000 0.000000 -8.995056 -5.566098 9.161232 -6.463718 -13.978069 -25.553235 23.493059 1.023199 0.605579 -9.043395 -10.210667 9.066537 -0.000096 -0.000004 0.000199 0.000000 0.000000 0.000000 -8.995056 -5.566098 9.161232 2.426266 1.473460 -5.863618 4.666352 1.729999 -2.802045 0.000000 0.000000 0.000000 0.000000 0.000000 0.000000 4.685184 1.690012 -2.793393 -2.808737 -0.350888 -5.041332 -1.723852 -2.292227 2.025737 0.000000 0.000000 0.000000 4.685184 1.690012 -2.793393 4.034696 -13.464704 -7.420044 0.000000 0.000000 0.000000 5.772112 3.721064 -60.112925 11.491841 -25.077057 -5.820579 0.000000 0.000000 0.000000 4.685184 1.690012 -2.793393 3.919268 12.466705 7.900380 0.000000 0.000000 0.000000 -3.939679 -11.622640 68.565073 15.857372 12.603588 4.140663 0.000000 0.000000 0.000000 
-2.060100 94.119690 -2.083851 0.000000 0.000000 0.000000 -9.275942 -5.308169 8.642860 7.621560 15.353096 -12.368321 13.154943 -0.503610 -0.396189 -7.819990 0.146503 4.639572 -0.090323 0.000320 -0.206142 0.000000 0.000000 0.000000 -9.275942 -5.308169 8.642860 -6.344327 -13.923062 -24.938870 24.342113 0.771482 0.492107 -8.861429 -10.284413 8.867665 -0.152476 -0.000901 0.346362 0.000000 0.000000 0.000000 -9.275942 -5.308169 8.642860 2.778887 1.338401 -5.583442 5.395335 1.608660 -2.665655 0.000000 0.000000 0.000000 0.000000 0.000000 0.000000 5.413140 1.560643 -2.655692 -4.963396 -0.057444 -5.756622 -1.813866 -2.079885 1.239585 0.000000 0.000000 0.000000 5.413140 1.560643 -2.655692 3.884198 -14.711370 -6.633770 0.000000 0.000000 0.000000 14.149909 -3.920238 -57.208121 5.105500 -33.594982 -7.629389 0.000000 0.000000 0.000000 5.413140 1.560643 -2.655692 3.778978 13.585870 7.369176 0.000000 0.000000 0.000000 -1.561296 -8.690974 67.291119 19.661251 17.108686 3.253681 0.000000 0.000000 0.000000 
-2.167301 94.657784 -1.611919 0.000000 0.000000 0.000000 -9.764528 -4.871620 7.948225 7.085903 15.128032 -11.407162 14.274055 -0.559347 -0.389827 -5.983227 0.383541 5.071050 -2.170489 0.033462 -0.882694 0.000000 0.000000 0.000000 -9.764528 -4.871620 7.948225 -5.597287 -14.534267 -24.430979 24.033436 0.831855 0.509804 -6.535763 -10.221194 9.900080 -0.665268 -0.017494 1.507207 0.000000 0.000000 0.000000 -9.764528 -4.871620 7.948225 3.344093 1.216163 -5.511996 6.545348 1.462752 -2.356483 0.000000 0.000000 0.000000 0.000000 0.000000 0.000000 6.561995 1.400467 -2.344019 -7.591530 0.266903 -6.803654 -3.470358 -1.812353 0.075825 0.000000 0.000000 0.000000 6.561995 1.400467 -2.344019 3.718492 -16.068577 -5.869253 0.000000 0.000000 0.000000 24.385447 -11.673107 -51.699689 -1.015562 -43.851631 -7.920979 0.000000 0.000000 0.000000 6.561995 1.400467 -2.344019 3.632213 14.772950 6.764339 0.000000 0.000000 0.000000 2.374866 -4.131470 64.732879 24.567492 23.972127 0.180365 0.000000 0.000000 0.000000 
-2.372021 95.449142 -1.232634 0.000000 0.000000 0.000000 -10.375349 -4.296904 7.191133 6.568896 14.244230 -10.215730 14.995059 -0.625533 -0.414919 -3.615874 1.091429 4.685200 -4.745589 0.062064 -0.747510 0.000000 0.000000 0.000000 -10.375349 -4.296904 7.191133 -4.970803 -15.198253 -24.001363 23.696281 0.902835 0.534757 -2.702503 -10.030479 11.721736 -5.050792 -0.066023 0.747182 0.000000 0.000000 0.000000 -10.375349 -4.296904 7.191133 4.109258 1.065437 -5.575384 8.102735 1.308806 -1.967463 0.000000 0.000000 0.000000 0.000000 0.000000 0.000000 8.118221 1.224252 -1.950584 -10.959819 0.827375 -8.283230 -5.796056 -1.466745 -1.105885 0.000000 0.000000 0.000000 8.118221 1.224252 -1.950584 3.677917 -17.189238 -4.621434 0.000000 0.000000 0.000000 35.375571 -17.290670 -44.197232 -8.508770 -55.069695 -8.002282 0.000000 0.000000 0.000000 8.118221 1.224252 -1.950584 3.594154 15.776873 5.711523 0.000000 0.000000 0.000000 7.321287 0.823309 61.355944 28.871486 31.893524 -5.417126 0.000000 0.000000 0.000000 
-2.598484 96.423248 -1.146601 0.000000 0.000000 0.000000 -11.297636 -3.654140 6.346009 6.324859 12.868433 -8.971094 15.138515 -0.696422 -0.437807 -0.638833 2.110829 4.003483 -7.598025 0.060497 -0.453528 0.000000 0.000000 0.000000 -11.297636 -3.654140 6.346009 -3.852389 -15.788015 -23.245430 22.818646 0.570748 0.386835 1.487856 -9.410396 13.329162 -9.374628 0.001621 -0.009695 0.000000 0.000000 0.000000 -11.297636 -3.654140 6.346009 5.063723 0.905657 -5.616679 10.048705 1.179355 -1.506794 0.000000 0.000000 0.000000 0.000000 0.000000 0.000000 10.062919 1.064182 -1.482889 -15.086223 1.643469 -10.274193 -7.234900 -1.305720 -2.073888 0.000000 0.000000 0.000000 10.062919 1.064182 -1.482889 3.792829 -17.998875 -2.810015 0.000000 0.000000 0.000000 45.750267 -19.635079 -36.192281 -21.232075 -66.513700 -12.196919 0.000000 0.000000 0.000000 10.062919 1.064182 -1.482889 3.695863 16.509327 4.154536 0.000000 0.000000 0.000000 12.858296 5.242508 57.359505 31.447041 40.722189 -12.921422 0.000000 0.000000 0.000000 
-3.063265 97.101227 -1.585699 0.000000 0.000000 0.000000 -11.645070 -3.102733 5.652472 5.100815 12.136040 -7.574343 15.674227 -0.836754 -0.548484 2.088837 2.653610 3.338018 -9.937445 0.039978 -0.228184 0.000000 0.000000 0.000000 -11.645070 -3.102733 5.652472 -4.501122 -13.039695 -22.585414 24.278527 0.529890 0.388993 6.428529 -8.180568 15.211355 -13.854629 0.196901 -0.798309 0.000000 0.000000 0.000000 -11.645070 -3.102733 5.652472 5.983479 0.782473 -5.821253 11.925768 1.197065 -1.127009 0.000000 0.000000 0.000000 0.000000 0.000000 0.000000 11.939826 1.053964 -1.095914 -18.678996 2.360589 -12.136421 -8.640260 -1.370358 -2.697550 0.000000 0.000000 0.000000 11.939826 1.053964 -1.095914 3.767388 -18.757048 -1.913575 0.000000 0.000000 0.000000 54.316892 -18.784569 -28.071864 -46.310236 -76.081313 -29.622763 0.000000 0.000000 0.000000 11.939826 1.053964 -1.095914 3.634456 17.267914 3.450437 0.000000 0.000000 0.000000 17.972278 7.903371 52.294531 33.437826 49.740757 -21.898848 0.000000 0.000000 0.000000 
-3.979115 96.937515 -2.299063 0.000000 0.000000 0.000000 -11.618151 -2.687354 5.304584 2.717389 11.840789 -5.971472 17.761934 -1.191582 -0.884637 3.625315 2.979148 2.616799 -11.687220 0.005343 -0.025848 0.000000 0.000000 0.000000 -11.618151 -2.687354 5.304584 -8.579370 -4.458672 -22.133662 34.161253 0.769967 0.653296 5.368892 -6.629970 18.009865 -0.909183 0.010127 -0.638015 0.000000 0.000000 0.000000 -11.618151 -2.687354 5.304584 6.960929 0.736121 -6.214835 13.897079 1.341576 -0.871818 0.000000 0.000000 0.000000 0.000000 0.000000 0.000000 13.911357 1.185208 -0.836186 -20.580694 3.346887 -13.019388 -10.792418 -0.707094 -3.623231 0.000000 0.000000 0.000000 13.911357 1.185208 -0.836186 3.102871 -19.861418 -4.146645 0.000000 0.000000 0.000000 60.448813 -15.465717 -19.147633 -89.318671 -82.240730 -67.492801 0.000000 0.000000 0.000000 13.911357 1.185208 -0.836186 2.892174 18.619719 5.627770 0.000000 0.000000 0.000000 21.713535 8.045567 45.273718 39.228478 57.568495 -34.668941 0.000000 0.000000 0.000000 
-4.936553 96.829681 -3.031750 0.000000 0.000000 0.000000 -10.589022 -2.148270 4.695845 -0.376248 11.491874 -4.174696 19.328696 -1.564599 -1.276895 4.539485 3.286739 2.356121 -12.141722 0.036868 -0.171364 0.000000 0.000000 0.000000 -10.589022 -2.148270 4.695845 -14.433134 2.247090 -20.818891 43.932648 0.698842 0.783343 3.118844 -4.641401 17.977785 0.000000 0.000000 -0.000001 0.000000 0.000000 0.000000 -10.589022 -2.148270 4.695845 7.787152 0.613360 -6.214806 15.559932 1.586076 -0.715183 0.000000 0.000000 0.000000 0.000000 0.000000 0.000000 15.574387 1.436217 -0.680107 -18.788711 4.106498 -12.224918 -14.974218 1.128071 -5.691693 0.000000 0.000000 0.000000 15.574387 1.436217 -0.680107 1.671286 -21.208863 -9.585017 0.000000 0.000000 0.000000 63.563141 -10.963342 -9.918418 -171.095392 -84.591367 -146.812676 0.000000 0.000000 0.000000 15.574387 1.436217 -0.680107 1.399870 20.579205 10.781933 0.000000 0.000000 0.000000 23.659178 5.972910 36.679861 52.772712 62.696711 -54.283075 0.000000 0.000000 0.000000 
-5.777434 96.722206 -3.859732 0.000000 0.000000 0.000000 -8.865528 -1.764147 3.644281 -4.272578 11.496411 -2.022549 20.983347 -1.888223 -1.579487 5.120366 3.340238 2.410810 -12.030337 0.107320 -0.503584 0.000000 0.000000 0.000000 -8.865528 -1.764147 3.644281 -21.710405 5.659847 -18.936635 52.322319 0.759073 0.907245 1.865401 -3.207920 14.009217 -0.000003 0.000001 0.000002 0.000000 0.000000 0.000000 -8.865528 -1.764147 3.644281 8.410225 0.492005 -5.911538 16.798208 1.976616 -0.553602 0.000000 0.000000 0.000000 0.000000 0.000000 0.000000 16.812757 1.847509 -0.523514 -14.390418 4.195306 -9.654250 -18.669436 3.796725 -8.942849 0.000000 0.000000 0.000000 16.812757 1.847509 -0.523514 0.097656 -22.255584 -15.233578 0.000000 0.000000 0.000000 62.767178 -6.606417 -2.369625 137.181494 -78.514855 161.833505 0.000000 0.000000 0.000000 16.812757 1.847509 -0.523514 -0.142187 22.442738 16.080338 0.000000 0.000000 0.000000 23.697533 2.931899 28.770198 71.252697 64.965822 -78.017385 0.000000 0.000000 0.000000 
-6.411445 96.419395 -5.079840 0.000000 0.000000 0.000000 -6.839840 -1.594027 2.861741 -8.365947 11.534317 -0.819286 22.546178 -1.962249 -1.647480 4.650474 3.766249 4.014821 -9.183638 0.325962 -2.015375 0.000000 0.000000 0.000000 -6.839840 -1.594027 2.861741 -28.138416 5.543903 -17.636930 57.064219 0.853892 0.978795 1.877810 -3.126229 8.285809 0.000008 -0.000002 0.000002 0.000000 0.000000 0.000000 -6.839840 -1.594027 2.861741 8.838766 0.285943 -5.719506 17.659953 2.191596 -0.672068 0.000000 0.000000 0.000000 0.000000 0.000000 0.000000 17.673598 2.078593 -0.645958 -7.036772 4.364976 -8.033705 -21.354429 5.590319 -9.786628 0.000000 0.000000 0.000000 17.673598 2.078593 -0.645958 -0.854676 -22.989607 -18.262623 0.000000 0.000000 0.000000 57.273820 -2.603059 2.554348 132.910222 -71.581585 156.790749 0.000000 0.000000 0.000000 17.673598 2.078593 -0.645958 -0.995214 23.738883 18.669270 0.000000 0.000000 0.000000 21.505274 -0.002973 23.581131 90.256736 66.543384 -101.355923 0.000000 0.000000 0.000000 
-6.760301 95.292336 -6.220869 0.000000 0.000000 0.000000 -5.621142 -1.125893 2.487682 -12.509627 10.960860 -0.330536 25.856118 -1.950659 -1.256827 3.802704 4.202308 4.777966 -7.662286 0.387871 -2.880619 0.000000 0.000000 0.000000 -5.621142 -1.125893 2.487682 -32.680847 3.824048 -16.953747 60.316308 1.031498 1.018211 2.313529 -3.667659 1.594349 0.000013 0.000006 -0.000002 0.000000 0.000000 0.000000 -5.621142 -1.125893 2.487682 9.313695 0.080709 -5.755055 18.624126 2.317852 -0.783689 0.000000 0.000000 0.000000 0.000000 0.000000 0.000000 18.638785 2.196024 -0.754716 1.897275 4.061756 -8.627018 -22.149491 5.347706 -8.529096 0.000000 0.000000 0.000000 18.638785 2.196024 -0.754716 -1.185092 -23.965380 -19.006152 0.000000 0.000000 0.000000 47.746550 0.703839 6.364891 143.440311 -67.121075 165.690690 0.000000 0.000000 0.000000 18.638785 2.196024 -0.754716 -1.240752 24.720912 19.051016 0.000000 0.000000 0.000000 16.801529 -2.724778 20.656562 111.366473 68.744966 -125.340638 0.000000 0.000000 0.000000 
